<?xml version="1.0" standalone="no"?><!DOCTYPE svg PUBLIC "-//W3C//DTD SVG 1.1//EN" "http://www.w3.org/Graphics/SVG/1.1/DTD/svg11.dtd"><svg t="1557288601439" class="icon" style="" viewBox="0 0 1024 1024" version="1.1" xmlns="http://www.w3.org/2000/svg" p-id="6971" xmlns:xlink="http://www.w3.org/1999/xlink" width="200" height="200"><defs><style type="text/css"></style></defs><path d="M128 512q0 27.008 18.496 45.504T192 576t45.504-18.496T256 512t-18.496-45.504T192 448t-45.504 18.496T128 512z m320 0q0 27.008 18.496 45.504T512 576t45.504-18.496T576 512t-18.496-45.504T512 448t-45.504 18.496T448 512z m320 0q0 27.008 18.496 45.504T832 576t45.504-18.496T896 512t-18.496-45.504T832 448t-45.504 18.496T768 512z" fill="#707070" p-id="6972"></path></svg>