<?xml version="1.0" standalone="no"?><!DOCTYPE svg PUBLIC "-//W3C//DTD SVG 1.1//EN" "http://www.w3.org/Graphics/SVG/1.1/DTD/svg11.dtd"><svg t="1557061620322" class="icon" style="" viewBox="0 0 1024 1024" version="1.1" xmlns="http://www.w3.org/2000/svg" p-id="2025" xmlns:xlink="http://www.w3.org/1999/xlink" width="200" height="200"><defs><style type="text/css"></style></defs><path d="M697.35401 140.028197c-67.062372 0-128.540561 30.739095-176.040389 81.032548-44.709271-50.293453-108.97904-81.032548-176.045505-81.032548-134.124743 0-243.10276 117.359918-243.10276 259.871679l0 13.970176 0 2.794649c0 25.146727 5.588275 53.091172 16.764825 83.830267l0 2.793626c75.448366 184.423313 354.87952 380.022153 354.87952 380.022153 25.146727 19.562545 64.268746 19.562545 89.415472 0 0 0 234.724952-164.863838 332.522326-335.316975l8.385994-16.764825c0-2.793626 2.793626-2.793626 2.793626-5.588275l0-2.793626c5.588275-11.17655 11.17655-22.353101 13.970176-33.533744 11.17655-27.941376 13.970176-50.297546 13.970176-72.650647l0-5.588275 0-11.17655C940.457794 257.388115 831.478753 140.028197 697.35401 140.028197L697.35401 140.028197zM697.35401 140.028197" p-id="2026" fill="#707070"></path></svg>