<?xml version="1.0" standalone="no"?><!DOCTYPE svg PUBLIC "-//W3C//DTD SVG 1.1//EN" "http://www.w3.org/Graphics/SVG/1.1/DTD/svg11.dtd"><svg t="1556352610409" class="icon" style="" viewBox="0 0 1024 1024" version="1.1" xmlns="http://www.w3.org/2000/svg" p-id="8708" xmlns:xlink="http://www.w3.org/1999/xlink" width="200" height="200"><defs><style type="text/css"></style></defs><path d="M842.35264 794.07104a20.48 20.48 0 0 1-20.48-20.48V433.89952c0-166.23616-135.23968-301.47584-301.47584-301.47584S218.92608 267.66336 218.92608 433.89952v339.69152a20.48 20.48 0 0 1-40.96 0V433.89952c0-188.82048 153.61536-342.43584 342.43584-342.43584s342.43584 153.61536 342.43584 342.43584v339.69152a20.49024 20.49024 0 0 1-20.48512 20.48z" p-id="8709" fill="#ffffff"></path><path d="M931.85536 807.7824H108.94336a20.48 20.48 0 0 1 0-40.96h822.912a20.48 20.48 0 0 1 0 40.96z" p-id="8710" fill="#ffffff"></path><path d="M520.40192 1002.50112c-89.34912 0-162.03776-72.68864-162.03776-162.03776v-35.0464a20.48 20.48 0 0 1 40.96 0v35.0464c0 66.7648 54.31296 121.07776 121.07776 121.07776 66.75968 0 121.07264-54.31296 121.07264-121.07776v-35.0464a20.48 20.48 0 0 1 40.96 0v35.0464c0 89.34912-72.68864 162.03776-162.03264 162.03776zM520.40192 132.42368a20.48 20.48 0 0 1-20.48-20.48V37.45792a20.48 20.48 0 0 1 40.96 0v74.48064a20.48 20.48 0 0 1-20.48 20.48512z" p-id="8711" fill="#ffffff"></path></svg>