<?xml version="1.0" standalone="no"?><!DOCTYPE svg PUBLIC "-//W3C//DTD SVG 1.1//EN" "http://www.w3.org/Graphics/SVG/1.1/DTD/svg11.dtd"><svg t="1555910501550" class="icon" style="" viewBox="0 0 1024 1024" version="1.1" xmlns="http://www.w3.org/2000/svg" p-id="4341" xmlns:xlink="http://www.w3.org/1999/xlink" width="200" height="200"><defs><style type="text/css"></style></defs><path d="M404.650329 785.407345c0-57.173286 47.274627-103.537691 105.58569-103.537691 58.311063 0 105.58569 46.364406 105.58569 103.537691 0 57.173286-47.274627 103.537691-105.58569 103.537692-58.311063 0-105.58569-46.364406-105.58569-103.537692z m-152.575872-171.519857c-58.311063 0-105.58569-46.364406-105.58569-103.537691 0-57.173286 47.274627-103.537691 105.58569-103.537692 58.311063 0 105.557245 46.364406 105.557245 103.537692 0 57.173286-47.246183 103.537691-105.557245 103.537691zM511.999573 158.60609c58.311063 0 105.58569 46.364406 105.58569 103.537692 0 57.173286-47.274627 103.537691-105.58569 103.537691-58.311063 0-105.58569-46.364406-105.585689-103.537691 0-57.173286 47.274627-103.537691 105.585689-103.537692z m264.760669 249.855792c58.311063 0 105.58569 46.364406 105.585689 103.537691 0 57.173286-47.274627 103.537691-105.585689 103.537692-58.311063 0-105.58569-46.364406-105.58569-103.537692 0-57.173286 47.274627-103.537691 105.58569-103.537691z m191.942951 558.790645h-222.23626C911.302352 882.203709 1023.999147 710.257186 1023.999147 511.999573c0-282.765987-229.233587-511.999573-511.999574-511.999573S0 229.233587 0 511.999573c0 276.081548 218.538485 501.133805 492.088479 511.601352 1.450665 0.256 2.95822 0.398222 4.494218 0.398222h472.120496a28.728865 28.728865 0 0 0 28.927976-28.359088 28.728865 28.728865 0 0 0-28.927976-28.359087z" fill="#F97070" p-id="4342"></path></svg>