<?xml version="1.0" standalone="no"?><!DOCTYPE svg PUBLIC "-//W3C//DTD SVG 1.1//EN" "http://www.w3.org/Graphics/SVG/1.1/DTD/svg11.dtd"><svg t="1555910395957" class="icon" style="" viewBox="0 0 1024 1024" version="1.1" xmlns="http://www.w3.org/2000/svg" p-id="2336" xmlns:xlink="http://www.w3.org/1999/xlink" width="200" height="200"><defs><style type="text/css"></style></defs><path d="M794.6496 483.1232c-6.6304-74.3424-95.9488-105.7024-147.0976-52.9152l-17.4592 18.0224c-33.7152 34.7904-33.7152 91.2128 2.9952 129.1264l14.5152 14.976c51.1744 52.8384 140.6208 21.376 147.1232-53.0432C796.3392 520.6016 796.3136 501.8112 794.6496 483.1232z" p-id="2337"></path><path d="M437.4528 375.3984c33.7408 34.8416 88.4736 34.8416 122.2144 0l17.408-17.9456c51.1488-52.7872 20.7616-144.9984-51.2768-151.8336-18.0992-1.7152-36.3008-1.7408-54.4-0.0512-72.0896 6.6816-102.5792 99.0208-51.4048 151.8592L437.4528 375.3984z" p-id="2338"></path><path d="M201.1904 482.9952c-1.7408 18.7904-1.8176 37.7088-0.2048 56.4992 6.3488 74.9824 95.6416 107.4688 147.1744 54.2464l18.7648-19.3536c33.7152-34.7904 33.7152-91.2128-3.1488-129.28l-15.4112-15.9232C296.9344 376.0896 208.1024 408.2688 201.1904 482.9952z" p-id="2339"></path><path d="M471.1936 818.432c18.2016 1.6384 36.5312 1.5616 54.7328-0.2304 72.3968-7.1424 103.5776-98.816 52.1472-151.8848l-18.5088-19.1232c-33.7408-34.8416-88.4736-34.8416-122.2144 0l-18.688 19.3024C367.104 719.7184 398.5664 811.8784 471.1936 818.432z" p-id="2340"></path><path d="M960.896 923.4944c-33.8432 0-77.2864-5.2224-92.0832-30.1056-17.408-29.2608 4.1472-82.7136 12.6464-98.3552 46.464-80.2816 75.264-142.5664 84.8896-223.3856 2.6368-22.272 3.8656-41.216 3.8656-59.6224 0-19.0208-1.3312-38.656-4.1984-61.824-27.1616-219.8528-195.2768-392.6784-408.8064-420.2752-44.4672-5.7344-74.0608-5.7344-118.5024 0-213.5296 27.6224-381.6448 200.4224-408.8064 420.3008-2.8672 23.2704-4.1984 42.9056-4.1984 61.7984 0 18.2272 1.28 37.7344 3.8912 59.6224 26.2912 221.0048 194.5344 394.7264 409.1136 422.4768 44.3136 5.7344 74.1376 5.7344 118.528 0 53.7088-6.9376 105.3952-23.2192 153.6512-48.3584 18.304-9.5488 25.4208-32.128 15.872-50.4576-9.5232-18.304-32.1024-25.472-50.4576-15.872-40.4224 21.0432-83.712 34.688-128.6656 40.4992-37.8368 4.8896-61.5168 4.8896-99.328 0-180.5312-23.3216-322.176-170.1888-344.4224-357.1456-2.2784-19.2-3.3536-35.328-3.3536-50.7648 0-15.7696 1.152-32.512 3.6352-52.6592 22.9888-185.9328 164.5056-332.032 344.1152-355.2512 37.9136-4.8896 61.4656-4.8896 99.3536 0 179.6352 23.2192 321.152 169.3184 344.1408 355.2512 2.4832 20.0448 3.6352 36.7872 3.6352 52.6592 0 15.3856-1.0752 31.5392-3.3536 50.7904-8.1152 68.0192-33.7664 122.9312-75.7504 195.4304-5.6576 10.24-53.9392 102.0672-11.9808 173.1072 26.24 44.4416 78.9248 66.9696 156.5696 66.9696 20.6592 0 37.4016-16.7424 37.4016-37.4016S981.5552 923.4944 960.896 923.4944z" p-id="2341"></path></svg>