<?xml version="1.0" standalone="no"?><!DOCTYPE svg PUBLIC "-//W3C//DTD SVG 1.1//EN" "http://www.w3.org/Graphics/SVG/1.1/DTD/svg11.dtd"><svg t="1555677443816" class="icon" style="" viewBox="0 0 1024 1024" version="1.1" xmlns="http://www.w3.org/2000/svg" p-id="1542" xmlns:xlink="http://www.w3.org/1999/xlink" width="200" height="200"><defs><style type="text/css"></style></defs><path d="M40 362.9c22.1 0 40-17.9 40-40v-219C80 90.7 90.7 80 103.9 80h219c22.1 0 40-17.9 40-40S345 0 322.9 0h-219C46.5 0 0 46.5 0 103.9v219c0 22 17.9 40 40 40zM920.1 0h-219c-22.1 0-40 17.9-40 40s17.9 40 40 40h219c13.2 0 23.9 10.7 23.9 23.9v219c0 22.1 17.9 40 40 40s40-17.9 40-40v-219C1024 46.5 977.5 0 920.1 0zM322.9 944h-219C90.7 944 80 933.3 80 920.1v-219c0-22.1-17.9-40-40-40S0 679 0 701.1v219C0 977.5 46.5 1024 103.9 1024h219c22.1 0 40-17.9 40-40s-18-40-40-40zM984 661.1c-22.1 0-40 17.9-40 40v219c0 13.2-10.7 23.9-23.9 23.9h-219c-22.1 0-40 17.9-40 40s17.9 40 40 40h219c57.4 0 103.9-46.5 103.9-103.9v-219c0-22-17.9-40-40-40zM984 472H40c-22.1 0-40 17.9-40 40s17.9 40 40 40h944c22.1 0 40-17.9 40-40s-17.9-40-40-40z" p-id="1543"></path></svg>