<?xml version="1.0" standalone="no"?><!DOCTYPE svg PUBLIC "-//W3C//DTD SVG 1.1//EN" "http://www.w3.org/Graphics/SVG/1.1/DTD/svg11.dtd"><svg t="1556352220223" class="icon" style="" viewBox="0 0 1024 1024" version="1.1" xmlns="http://www.w3.org/2000/svg" p-id="7254" xmlns:xlink="http://www.w3.org/1999/xlink" width="200" height="200"><defs><style type="text/css"></style></defs><path d="M580.297 1022.141H443.675c-14.252 0-26.803-9.447-30.73-23.178L371.04 852.318l-133.354 74.064c-12.496 6.947-28.039 4.75-38.145-5.328l-96.583-96.639c-10.078-10.104-12.276-25.648-5.355-38.115l74.092-133.354-146.673-41.905c-13.703-3.928-23.178-16.479-23.178-30.73v-136.65c0-14.279 9.475-26.802 23.178-30.729l146.673-41.905-74.091-133.328c-6.92-12.495-4.723-28.038 5.355-38.145l96.583-96.582c10.105-10.105 25.677-12.275 38.145-5.354l133.354 74.091 41.906-146.646c3.927-13.729 16.478-23.204 30.73-23.204h136.622c14.28 0 26.83 9.475 30.729 23.204l41.906 146.646 133.354-74.091c12.467-6.921 28.038-4.751 38.144 5.354l96.61 96.582c10.079 10.106 12.275 25.649 5.328 38.145l-74.064 133.327 146.645 41.905c13.732 3.928 23.206 16.45 23.206 30.729v136.649c0 14.252-9.474 26.803-23.206 30.73l-146.672 41.906 74.092 133.354c6.947 12.467 4.751 28.012-5.328 38.115l-96.61 96.639c-10.105 10.078-25.649 12.275-38.144 5.328l-133.354-74.064-41.906 146.645c-3.902 13.731-16.452 23.179-30.732 23.179z m-112.51-63.93h88.398l46.328-162.189a32.01 32.01 0 0 1 18.51-20.762 32.117 32.117 0 0 1 27.764 1.594l147.469 81.945 62.503-62.529-81.919-147.469c-4.75-8.514-5.328-18.758-1.593-27.766a32.02 32.02 0 0 1 20.734-18.508l162.215-46.355v-88.371l-162.188-46.327a32.004 32.004 0 0 1-20.761-18.51c-3.735-9.007-3.131-19.251 1.593-27.764l81.919-147.47-62.503-62.502-147.469 81.945c-8.514 4.724-18.757 5.327-27.764 1.593-9.008-3.735-15.818-11.396-18.51-20.761L556.186 65.817h-88.398L421.46 228.005c-2.691 9.364-9.502 17.025-18.509 20.761-9.007 3.734-19.25 3.131-27.764-1.593l-147.469-81.945-62.503 62.502 81.918 147.47c4.751 8.513 5.328 18.757 1.593 27.764a32.006 32.006 0 0 1-20.761 18.51L65.776 467.801v88.371l162.215 46.355c9.365 2.691 17.027 9.502 20.734 18.508a32.017 32.017 0 0 1-1.565 27.766L165.214 796.27l62.503 62.529 147.469-81.945c8.513-4.723 18.756-5.301 27.764-1.594 9.007 3.736 15.818 11.398 18.509 20.762l46.328 162.189z" fill="#ffffff" p-id="7255"></path><path d="M512 722.424c-116.026 0-210.439-94.385-210.439-210.383 0-116.053 94.413-210.466 210.439-210.466 56.187 0 109.05 21.888 148.787 61.651 39.737 39.737 61.623 92.602 61.623 148.814 0 56.186-21.886 109.023-61.651 148.76-39.736 39.737-92.572 61.624-148.759 61.624z m0-356.89c-80.792 0-146.508 65.715-146.508 146.507 0 80.736 65.715 146.426 146.508 146.426 80.765 0 146.453-65.689 146.453-146.426 0-80.792-65.688-146.507-146.453-146.507z" fill="#ffffff" p-id="7256"></path></svg>