<?xml version="1.0" standalone="no"?><!DOCTYPE svg PUBLIC "-//W3C//DTD SVG 1.1//EN" "http://www.w3.org/Graphics/SVG/1.1/DTD/svg11.dtd"><svg t="1557665842583" class="icon" style="" viewBox="0 0 1024 1024" version="1.1" xmlns="http://www.w3.org/2000/svg" p-id="2613" xmlns:xlink="http://www.w3.org/1999/xlink" width="200" height="200"><defs><style type="text/css"></style></defs><path d="M810.666688 767.96281C810.666688 791.547501 790.972032 810.666669 767.962816 810.666669L256.037184 810.666669C232.45248 810.666669 213.333312 790.972006 213.333312 767.96281L213.333312 256.037191C213.333312 232.452502 233.027968 213.333333 256.037184 213.333333L469.333312 213.333333C492.897472 213.333333 512 194.230816 512 170.666667 512 147.102517 492.897472 128 469.333312 128L212.940608 128C166.883392 128 128 166.029199 128 212.940593L128 811.059405C128 857.11664 166.029184 896 212.940608 896L811.059392 896C857.116608 896 896 857.970803 896 811.059405L896 554.666669C896 531.102515 876.897472 512 853.333312 512 829.769216 512 810.666688 531.102515 810.666688 554.666669L810.666688 767.96281 810.666688 767.96281ZM678.140416 214.250911C654.7936 214.250911 635.8672 194.459245 635.8672 171.584244 635.8672 148.020095 654.27808 128.917578 678.140416 128.917578L849.594048 128.917578C861.200512 128.917578 871.714496 133.808918 879.353792 141.538775 887.144448 148.808651 891.8672 159.325826 891.8672 171.190771L891.8672 342.644385C891.8672 365.991224 872.075584 384.917581 849.200576 384.917581 825.636416 384.917581 806.533888 366.506689 806.533888 342.644385L806.533888 274.59069 432.024704 649.09984C415.34784 665.776736 387.833728 665.30121 371.658688 649.126138 354.996288 632.46377 355.414976 605.030022 371.684928 588.760064L746.194112 214.250911 678.140416 214.250911 678.140416 214.250911Z" p-id="2614" fill="#2c2c2c"></path></svg>