<?xml version="1.0" standalone="no"?><!DOCTYPE svg PUBLIC "-//W3C//DTD SVG 1.1//EN" "http://www.w3.org/Graphics/SVG/1.1/DTD/svg11.dtd"><svg t="1556371129161" class="icon" style="" viewBox="0 0 1024 1024" version="1.1" xmlns="http://www.w3.org/2000/svg" p-id="9595" xmlns:xlink="http://www.w3.org/1999/xlink" width="200" height="200"><defs><style type="text/css"></style></defs><path d="M863.22971 1023.949057h-719.191612A144.088042 144.088042 0 0 1 0 879.910959v-719.191611A161.218786 161.218786 0 0 1 160.719348 0h351.205237a36.459019 36.459019 0 0 1 36.459019 36.459019 36.459019 36.459019 0 0 1-36.459019 36.459019H146.435403a73.96686 73.96686 0 0 0-73.217701 73.167758l-1.348485 733.825163a71.869217 71.869217 0 0 0 71.869218 71.869218l733.775219-1.198653a73.96686 73.96686 0 0 0 73.217702-73.217701v-365.189519a36.459019 36.459019 0 0 1 36.459019-36.459019 36.459019 36.459019 0 0 1 36.459019 36.459019v365.738901a160.469628 160.469628 0 0 1-160.369741 146.085796z" p-id="9596" fill="#ffffff"></path><path d="M987.490038 329.279882a36.259244 36.259244 0 0 1-36.459019-36.45902l-0.998877-174.803516-556.724229 530.903252a38.506718 38.506718 0 0 1-52.790662 0 34.411321 34.411321 0 0 1 0-50.393357L892.147206 72.218824l-160.719348 0.998878a36.459019 36.459019 0 0 1 0-72.868095h255.063303a36.558907 36.558907 0 0 1 37.457896 35.759805v256.411787a36.558907 36.558907 0 0 1-36.459019 36.758683z" p-id="9597" fill="#ffffff"></path></svg>