<?xml version="1.0" standalone="no"?><!DOCTYPE svg PUBLIC "-//W3C//DTD SVG 1.1//EN" "http://www.w3.org/Graphics/SVG/1.1/DTD/svg11.dtd"><svg t="1557063668837" class="icon" style="" viewBox="0 0 1024 1024" version="1.1" xmlns="http://www.w3.org/2000/svg" p-id="6227" xmlns:xlink="http://www.w3.org/1999/xlink" width="200" height="200"><defs><style type="text/css"></style></defs><path d="M988.43 388.71c-8.31-23.97-29.64-41.52-55.32-45.33l-249.78-37.14-108.57-225.42c-11.43-23.67-35.88-38.82-62.76-38.82s-51.33 15.15-62.76 38.82l-108.57 225.42-249.81 37.14c-25.65 3.81-46.98 21.36-55.26 45.33-8.25 24.03-2.01 50.49 16.11 68.55l183.06 182.76-42.45 253.53c-4.32 25.53 6.75 51.15 28.44 66.09 11.91 8.19 25.92 12.36 39.93 12.36 11.52 0 23.07-2.82 33.54-8.43l217.77-117.24 217.8 117.24c10.47 5.61 22.02 8.43 33.51 8.43 14.01 0 28.02-4.17 39.96-12.36 21.69-14.94 32.7-40.56 28.41-66.09l-42.48-253.53 183.12-182.76c18.09-18.09 24.3-44.55 16.11-68.55zM739.64 592.89c-15.36 15.3-22.32 36.87-18.81 58.02l42.48 253.53-217.8-117.18c-10.44-5.64-21.96-8.43-33.54-8.43-11.52 0-23.07 2.82-33.51 8.43l-217.8 117.18 42.48-253.53c3.54-21.15-3.42-42.72-18.78-58.02l-183.06-182.76 249.78-37.2c22.83-3.39 42.48-17.67 52.29-38.04l108.63-225.36 108.6 225.39c9.84 20.37 29.46 34.62 52.26 38.04l249.84 37.2-183.06 182.73z" fill="#f1904b" p-id="6228"></path></svg>