<?xml version="1.0" standalone="no"?><!DOCTYPE svg PUBLIC "-//W3C//DTD SVG 1.1//EN" "http://www.w3.org/Graphics/SVG/1.1/DTD/svg11.dtd"><svg t="1557061720777" class="icon" style="" viewBox="0 0 1024 1024" version="1.1" xmlns="http://www.w3.org/2000/svg" p-id="3787" xmlns:xlink="http://www.w3.org/1999/xlink" width="200" height="200"><defs><style type="text/css"></style></defs><path d="M936 487L785 641l36 218q6 40-20 70.5T735 960a85.89 85.89 0 0 1-42-11L512 849 331 949a86.06 86.06 0 0 1-42 11q-40 0-66-30.5T203 859l36-218L88 487a88.8 88.8 0 0 1-22.5-41.5 83.58 83.58 0 0 1 2.5-47 85.82 85.82 0 0 1 26.5-39A87.37 87.37 0 0 1 137 340l205-31 92-195a80.94 80.94 0 0 1 33-37 84.38 84.38 0 0 1 90 0 81.27 81.27 0 0 1 33 37l92 195 205 31a87.49 87.49 0 0 1 42.5 19.5 86.28 86.28 0 0 1 26.5 39 84.12 84.12 0 0 1 2.5 47A89.33 89.33 0 0 1 936 487z" p-id="3788" fill="#707070"></path></svg>