<?xml version="1.0" standalone="no"?><!DOCTYPE svg PUBLIC "-//W3C//DTD SVG 1.1//EN" "http://www.w3.org/Graphics/SVG/1.1/DTD/svg11.dtd"><svg t="1555919171672" class="icon" style="" viewBox="0 0 1024 1024" version="1.1" xmlns="http://www.w3.org/2000/svg" p-id="15489" xmlns:xlink="http://www.w3.org/1999/xlink" width="200" height="200"><defs><style type="text/css"></style></defs><path d="M512 917.333333c-211.2 0-384-166.4-384-373.333333 0-100.266667 40.533333-192 108.8-260.266667 0-2.133333-2.133333-4.266667-2.133333-6.4L234.666667 128c0-10.666667 6.4-19.2 17.066667-21.333333 0 0 0 0 2.133333 0 2.133333 0 2.133333 0 2.133333 0 0 0 0 0 2.133333 0 4.266667 0 8.533333 0 12.8 2.133333l123.733333 76.8c0 0 2.133333 2.133333 2.133333 2.133333C433.066667 177.066667 471.466667 170.666667 512 170.666667c211.2 0 384 166.4 384 373.333333C896 750.933333 723.2 917.333333 512 917.333333zM512 213.333333c-38.4 0-76.8 6.4-110.933333 19.2l-2.133333-6.4c-6.4 8.533333-19.2 10.666667-27.733333 4.266667L277.333333 174.933333 277.333333 277.333333c0 8.533333-4.266667 14.933333-10.666667 17.066667l12.8 6.4C213.333333 362.666667 170.666667 448 170.666667 544 170.666667 727.466667 324.266667 874.666667 512 874.666667c187.733333 0 341.333333-147.2 341.333333-330.666667C853.333333 360.533333 699.733333 213.333333 512 213.333333zM682.666667 533.333333c-12.8 0-21.333333-8.533333-21.333333-21.333333l0-64c0-12.8 8.533333-21.333333 21.333333-21.333333 12.8 0 21.333333 8.533333 21.333333 21.333333l0 64C704 524.8 695.466667 533.333333 682.666667 533.333333zM533.333333 533.333333c-12.8 0-21.333333-8.533333-21.333333-21.333333l0-21.333333 0-21.333333 0-21.333333c0-12.8 8.533333-21.333333 21.333333-21.333333s21.333333 8.533333 21.333333 21.333333l0 21.333333 0 21.333333 0 21.333333C554.666667 524.8 546.133333 533.333333 533.333333 533.333333z" p-id="15490" fill="#EF6D83"></path></svg>