<?xml version="1.0" standalone="no"?><!DOCTYPE svg PUBLIC "-//W3C//DTD SVG 1.1//EN" "http://www.w3.org/Graphics/SVG/1.1/DTD/svg11.dtd"><svg t="1557293240953" class="icon" style="" viewBox="0 0 1126 1024" version="1.1" xmlns="http://www.w3.org/2000/svg" p-id="8592" xmlns:xlink="http://www.w3.org/1999/xlink" width="219.921875" height="200"><defs><style type="text/css"></style></defs><path d="M1005.92124981 632.88286367c0-31.15950029-10.71609082-54.92738057-31.67146406-68.73722841 12.71560693-7.20155567 31.44404618-42.80723349 31.44404618-74.25127969-1.26562851-51.9456832-51.52380732-90.44956143-127.40765976-90.44956144L677.08096982 399.44479326c34.45211075-93.76963769 27.95478047-220.22038652-15.24356719-287.71725498C635.82281211 71.11098388 604.57542119 62 582.89055401 62c-73.01201924 0-75.40264951 70.34233448-75.40264952 94.27610918 0 80.0421873-11.56094121 116.52018222-25.959658 150.15710478-11.41921758 21.77165918-81.31111172 93.37522763-152.71912266 93.37522765L194.9909249 399.8084416c-51.66663048 0-89.13119941 43.25877247-89.04550517 104.82630557L140.65131464 870.84841045c4.19239336 56.42042607 31.8944874 90.5901873 87.47006221 90.59018731 0 0 27.67572685 0.2285165 48.40478086 0.22851649 10.5743663 0 20.4445081-0.086792 26.29364326-0.22851649 17.12772773-0.56250175 31.24739092-11.53127813 43.73558-20.75432344 8.83193115-6.49733028 15.83573203-12.15420469 22.19133866-12.15420469 2.84107148 0 19.06681904 9.3131332 38.98068574 17.77592198 20.30717813 8.58034336 52.51038222 15.69400839 83.30733193 15.69400839l279.87299737 0c93.82566885 0 138.87851309-35.15633614 138.87851309-93.7696377 0-17.32658028-3.99134268-27.59113212-13.60879805-41.00656992 37.6579292-9.0241919 71.06853252-32.70637881 71.06853251-73.5437584 0-15.16226837-7.14113086-39.51682031-16.90030985-45.98229023C968.76429893 702.99778115 1005.97728008 670.14638193 1005.92124981 632.88286367L1005.92124981 632.88286367zM301.44211279 924.54202286c-16.76188213 0.53064053-76.89130137 0-77.28571143-1e-8-21.57390527 0-40.69675459-20.33464395-45.56371024-47.64562383l-34.70589493-380.70246796c0-28.48761826 22.92083261-59.70864199 53.52002842-59.708642l0 0.19775479 131.40229834 0.39441006c2.24890665 0 4.47254472-0.28234951 6.69508506-0.36474698l0 465.72257286c-6.07655302 4.24402911-11.75869599 8.35182685-15.80936484 11.33352333C314.12805663 917.87550224 304.82041748 924.14541552 301.44211279 924.54202286L301.44211279 924.54202286zM915.10364551 682.77629551l-5.08997811 0 0.4768075 33.97640097c4.08143057 1.54468125 19.12724385 6.07215849 19.15361105 35.60677647 0 31.63740644-41.56797217 44.35301338-76.58258468 44.35301338l0.08569336 0-0.59216484 32.37129492c14.26028907 3.17615537 19.37663438 15.63797724 19.35026719 35.55074619 0 34.81795635-28.29425888 59.9063959-101.78638155 59.9063959L480.28788652 924.54092422c-13.86148448 0-42.01841338-8.07387188-58.24416094-15.92252403-15.29959748-7.39381729-39.825537-21.23442685-48.29272031-25.81793437L373.75100527 430.54936192c72.87468925-20.19182167 133.03377246-83.05025185 148.22130937-112.07839835C538.48151036 280.08354043 546.75093974 239.94928672 546.75093974 151.91672363c0-43.73557998 16.05985401-49.61437911 33.15681914-49.6143791 15.13150663 0 39.1773419 16.68058242 51.33154659 35.69246982 35.97152344 56.16334512 44.37938057 177.15936797-0.36914151 267.77921836l-7.70363175 31.35835284 256.86647228-0.05603027c43.73557998 2.39063115 87.69308556 20.27751504 87.69308556 52.53784804l-0.30871671 10.09755879c0.14172364 0.42077724-1.06897237 27.95478047-15.72477012 40.10458975-12.29153378 10.20961933-22.24736894 10.55019638-22.24736895 10.55019639l-0.2790536 33.43916865c0 0 14.82278994 1.99512246 22.55608564 7.31251757 11.64333866 7.98707988 16.92997295 23.11858652 16.31253955 39.65414941C967.27564795 651.69699629 934.93072021 682.77629551 915.10364551 682.77629551L915.10364551 682.77629551zM915.10364551 682.77629551" p-id="8593" fill="#707070"></path></svg>