<?xml version="1.0" standalone="no"?><!DOCTYPE svg PUBLIC "-//W3C//DTD SVG 1.1//EN" "http://www.w3.org/Graphics/SVG/1.1/DTD/svg11.dtd"><svg t="1557735125352" class="icon" style="" viewBox="0 0 1136 1024" version="1.1" xmlns="http://www.w3.org/2000/svg" p-id="3951" xmlns:xlink="http://www.w3.org/1999/xlink" width="221.875" height="200"><defs><style type="text/css"></style></defs><path d="M1079.225752 220.909346H1000.052732v640.628232H136.704136V220.909346h-79.174604c-21.096855 0-29.914279 4.159162-29.914279 29.91428v625.90242c0 33.591771 8.519549 50.622946 25.311473 50.622946h101.250645v48.325504c0.123587 6.1413 2.633344 20.710251 23.009278 20.710251H959.57022c20.374349 0 22.877769-14.568951 23.007693-20.835422v-48.197164h101.245892c16.795093 0 25.314642-17.03276 25.314642-50.622946h0.003169V250.823626c0-25.756701-8.817424-29.914279-29.915864-29.91428" fill="#FFFFFF" p-id="3952"></path><path d="M975.054979 220.909346V135.767731c0-53.833027-45.345167-108.152478-146.651268-108.152478H308.349989c-101.304516 0-146.651268 54.319451-146.651268 108.152478v700.764171h813.354673V220.909346z" fill="#FFFFFF" p-id="3953"></path><path d="M1079.225752 193.295678H1002.667063V135.766146C1002.667063 70.379363 948.133712 0 828.403711 0H308.349989C188.619987 0 134.085052 70.379363 134.085052 135.766146v57.529532H57.531116C18.82318 193.295678 0 212.114105 0 250.823626v625.904005c0 68.07083 33.159218 78.236614 52.926726 78.236614h73.636977v20.695991c0 2.080373 0.366006 20.787889 14.210867 34.650179 6.230029 6.244289 17.607912 13.69117 36.412079 13.691169H959.57022c18.802582 0 30.180466-7.442128 36.410494-13.691169 13.841692-13.86229 14.210867-32.566636 14.210867-34.63275v-20.711836h73.635393c19.767508 0 52.925141-10.165785 52.925141-78.236614V250.823626c0.001584-38.709521-18.820011-57.527947-57.526363-57.527948m-917.525447 27.613668V135.766146c0-53.833027 45.346752-108.152478 146.651268-108.152478h520.053723c101.306101 0 146.651268 54.319451 146.651267 108.152478v700.764172H161.700305V220.909346zM1109.141616 876.729215h-0.003169c0 33.590186-8.519549 50.622946-25.316226 50.622946h-101.244308v48.197164c-0.129924 6.266471-2.633344 20.837007-23.007693 20.837007H177.186649c-20.375934 0-22.885691-14.570536-23.009278-20.711836v-48.325504H52.925141c-16.79034 0-25.311473-17.031175-25.311473-50.622946v-625.90242c0-25.755117 8.817424-29.914279 29.915864-29.91428h79.17302v640.628232H1000.052732V220.909346h79.17302c21.09844 0 29.915864 4.157578 29.915864 29.91428v625.905589z" fill="#999999" p-id="3954"></path></svg>