<?xml version="1.0" standalone="no"?><!DOCTYPE svg PUBLIC "-//W3C//DTD SVG 1.1//EN" "http://www.w3.org/Graphics/SVG/1.1/DTD/svg11.dtd"><svg t="1557736177705" class="icon" style="" viewBox="0 0 1024 1024" version="1.1" xmlns="http://www.w3.org/2000/svg" p-id="3575" xmlns:xlink="http://www.w3.org/1999/xlink" width="200" height="200"><defs><style type="text/css"></style></defs><path d="M98.9184 842.513067h792.029867v0.068266H98.9184z" fill="#dc341e" p-id="3576"></path><path d="M989.457067 520.8064a98.952533 98.952533 0 0 0-98.5088-90.7264v-58.026667C890.948267 167.2192 713.659733 1.1264 494.933333 1.1264S98.952533 167.253333 98.9184 372.053333v58.026667a100.113067 100.113067 0 0 0-98.304 90.7264H0v329.966933a146.500267 146.500267 0 0 0 123.733333 123.733334h57.7536A49.493333 49.493333 0 0 0 230.980267 1024h98.986666a49.493333 49.493333 0 0 0 49.493334-49.493333h263.953066A49.493333 49.493333 0 0 0 692.906667 1024h98.986666a49.493333 49.493333 0 0 0 49.493334-49.493333h24.746666A146.500267 146.500267 0 0 0 989.866667 850.773333v-329.966933zM330.0352 363.349333a32.768 32.768 0 0 1 44.373333-1.570133l99.6352 87.176533 163.874134-166.229333a32.768 32.768 0 0 1 44.373333-1.604267 28.433067 28.433067 0 0 1 1.604267 41.813334l-185.2416 187.972266a32.768 32.768 0 0 1-44.373334 1.570134l-122.606933-107.349334a28.3648 28.3648 0 0 1-1.6384-41.7792zM919.790933 529.066667v321.604266a88.7808 88.7808 0 0 1-53.794133 53.76h-24.610133a70.109867 70.109867 0 0 0-67.003734 49.493334h-63.965866a70.109867 70.109867 0 0 0-67.003734-49.493334h-263.953066a70.109867 70.109867 0 0 0-67.037867 49.493334H248.490667a70.109867 70.109867 0 0 0-67.003734-49.493334H123.869867a70.417067 70.417067 0 0 1-32.938667-20.821333 70.314667 70.314667 0 0 1-20.821333-32.938667v-320.477866l0.2048-1.9456a30.037333 30.037333 0 0 1 28.672-28.091734h49.493333a30.037333 30.037333 0 0 1 28.672 28.091734l0.238933 1.9456v213.333333a70.075733 70.075733 0 0 0 70.075734 70.109867h494.933333a70.075733 70.075733 0 0 0 70.075733-70.109867v-215.04l0.2048-1.877333a29.013333 29.013333 0 0 1 28.706134-26.453334h49.493333a29.013333 29.013333 0 0 1 28.706133 26.453334l0.2048 1.877333v0.580267z m0 0" fill="#dc341e" p-id="3577"></path></svg>